<?xml version="1.0" standalone="no"?>
<!DOCTYPE svg PUBLIC "-//W3C//DTD SVG 20010904//EN"
 "http://www.w3.org/TR/2001/REC-SVG-20010904/DTD/svg10.dtd">
<svg version="1.0" xmlns="http://www.w3.org/2000/svg"
 width="400.000000pt" height="400.000000pt" viewBox="0 0 400.000000 400.000000"
 preserveAspectRatio="xMidYMid meet">
<metadata>
Created by potrace 1.14, written by Peter Selinger 2001-2017
</metadata>
<g transform="translate(0.000000,400.000000) scale(0.100000,-0.100000)"
fill="#000000" stroke="none">
<path d="M2597 3821 c-29 -27 -104 -77 -167 -111 -116 -63 -226 -138 -268
-183 -22 -23 -24 -24 -74 -10 -29 7 -71 12 -93 12 -31 -2 -33 -3 -10 -5 67 -8
135 -26 135 -36 0 -6 -10 -8 -22 -4 -63 17 -182 27 -257 22 -96 -7 -104 0 -15
13 49 7 53 9 20 10 -83 2 -226 -49 -325 -119 -57 -40 -57 -40 -98 -26 -22 8
-105 28 -183 45 -109 24 -168 44 -260 86 -65 30 -133 55 -151 55 l-31 0 6 -45
c4 -24 34 -106 67 -182 33 -76 74 -175 90 -219 17 -45 43 -103 60 -128 16 -26
29 -53 29 -61 0 -8 5 -15 11 -15 7 0 32 -19 57 -42 l46 -42 -3 -81 c-3 -100 9
-194 59 -440 35 -177 51 -278 64 -416 6 -56 5 -58 -31 -89 -87 -76 -118 -128
-148 -245 -26 -105 -27 -117 -21 -255 16 -328 34 -459 75 -550 16 -38 20 -64
18 -143 -1 -53 -4 -97 -8 -97 -3 0 -11 6 -18 13 -11 10 -13 9 -8 -5 11 -33
-64 -37 -130 -7 -25 11 -47 18 -50 15 -3 -3 -19 2 -35 10 -16 8 -39 12 -51 9
-51 -14 -77 -28 -77 -40 0 -8 -6 -20 -13 -27 -7 -7 -13 -15 -14 -18 0 -3 -12
-24 -27 -48 -14 -23 -32 -65 -38 -92 -11 -48 -13 -50 -45 -50 -18 0 -33 -3
-33 -6 0 -4 30 -67 68 -140 l67 -134 448 0 c351 0 447 3 447 13 -2 98 -52 393
-70 411 -6 6 -10 37 -10 71 -1 33 -7 71 -15 85 -8 14 -15 52 -15 85 0 37 -4
55 -9 47 -17 -27 -58 366 -48 468 5 55 3 61 -37 123 -51 80 -71 125 -83 196
-12 62 2 154 19 130 7 -10 8 -4 4 18 -3 17 1 66 9 108 8 42 15 101 15 131 0
30 7 69 15 87 14 29 14 30 0 13 -8 -11 -15 -15 -15 -9 0 12 89 93 103 93 4 0
7 -6 7 -14 0 -8 16 -35 35 -60 19 -26 36 -59 36 -74 2 -24 2 -25 6 -4 5 23 5
23 26 5 12 -10 3 3 -21 30 -23 26 -58 81 -77 123 -19 42 -51 103 -71 136 -35
57 -36 64 -40 166 l-4 107 16 -80 c9 -44 17 -89 20 -101 3 -20 36 -64 47 -64
4 0 2 12 -3 26 -17 43 -11 69 20 99 l30 29 0 -51 c0 -58 8 -86 21 -77 5 3 9
-5 9 -18 0 -14 6 -33 14 -44 14 -18 15 -18 12 6 -2 14 -7 34 -13 45 -16 31
-24 84 -17 112 6 23 10 25 42 19 51 -8 64 -24 47 -56 -8 -14 -14 -19 -15 -12
0 14 -46 16 -55 2 -3 -5 -1 -10 4 -10 6 0 20 -9 31 -20 11 -11 20 -15 20 -10
0 6 5 10 11 10 7 0 20 9 30 21 l18 21 15 -31 c13 -23 14 -40 7 -71 -8 -36 -7
-39 6 -28 11 9 14 26 10 68 -2 30 -8 64 -12 75 -8 18 -7 19 9 6 14 -12 14 -8
-4 21 -11 20 -35 41 -53 49 -18 7 -34 14 -36 15 -2 2 11 21 30 42 19 21 40 47
47 58 11 17 11 16 2 -4 -6 -13 -10 -28 -8 -34 7 -21 51 54 69 116 l18 61 2
-50 c2 -27 2 -74 0 -102 -1 -29 0 -53 4 -53 4 0 24 19 45 41 l38 41 -8 -36
c-7 -32 -6 -35 9 -26 29 15 92 90 113 134 l19 41 -4 -58 c-5 -73 8 -70 52 14
l33 64 -4 -57 c-3 -32 -1 -58 4 -58 4 0 8 5 8 11 0 5 5 7 12 3 6 -4 8 -3 5 3
-3 5 5 40 19 77 13 37 24 76 24 86 0 17 8 20 43 22 l42 1 -37 4 c-21 2 -38 7
-39 11 0 4 -2 18 -4 32 -3 14 -7 41 -10 61 l-5 36 63 14 62 14 15 108 c8 59
18 107 22 107 11 0 10 -20 -5 -121 l-13 -86 65 14 c36 7 82 15 101 18 50 7
-61 -31 -118 -40 -50 -9 -56 -17 -72 -112 l-12 -72 55 -53 c46 -45 57 -62 67
-108 12 -53 31 -279 25 -290 -2 -3 -6 -102 -10 -220 -4 -118 -9 -222 -11 -230
-3 -7 -5 -80 -5 -160 0 -148 11 -248 37 -354 18 -68 6 -97 -20 -50 -17 32 -21
28 -7 -9 5 -13 6 -28 3 -34 -13 -20 -204 -142 -256 -162 -51 -21 -52 -22 -84
-106 -81 -216 -125 -467 -122 -703 1 -66 -2 -88 -18 -115 -17 -27 -62 -145
-62 -162 0 -3 246 -5 546 -5 l546 0 -6 34 c-6 31 -3 37 29 61 19 15 35 32 35
37 0 7 -4 7 -12 0 -7 -5 -23 -12 -36 -14 -21 -3 -26 5 -51 84 -16 47 -38 100
-50 117 -12 17 -20 35 -17 40 3 5 -1 11 -9 15 -8 3 -15 10 -15 16 0 6 -27 43
-60 83 -34 39 -63 82 -66 94 -7 25 91 209 139 260 25 27 30 41 33 99 3 46 13
85 31 123 21 44 28 75 31 145 4 79 6 87 17 65 7 -13 16 -44 20 -69 6 -35 9
-41 15 -25 9 22 10 18 28 -75 l9 -45 7 42 c7 37 0 93 -20 178 -14 56 16 -19
35 -90 24 -88 22 -134 -11 -198 -10 -21 -30 -43 -43 -49 -14 -6 -25 -15 -25
-20 0 -23 71 14 109 57 53 60 64 98 58 191 -6 103 -32 163 -254 594 -107 208
-155 407 -178 740 -7 102 -14 169 -15 150 -2 -27 -4 -21 -10 25 -5 34 -17 88
-28 120 -20 57 -21 58 -22 25 -2 -34 -2 -34 -16 15 -9 35 -11 64 -5 98 6 34 4
59 -6 89 -21 61 -8 58 16 -4 11 -29 20 -47 20 -40 1 8 -12 44 -29 81 -32 74
-31 90 8 168 64 124 100 626 47 647 -8 3 -37 -16 -68 -43z m-31 -176 c-23 -52
-27 -55 -42 -41 -9 10 -13 24 -9 36 3 11 2 20 -3 20 -14 0 -8 33 6 38 6 2 9
-5 7 -17 -6 -33 11 -34 37 -2 13 15 25 27 27 25 1 -1 -9 -28 -23 -59z m-506
-235 c48 -25 51 -32 8 -23 -24 5 -29 3 -23 -7 6 -9 2 -10 -16 -5 -35 11 -77
33 -84 45 -11 18 74 11 115 -10z m-788 -47 c8 -10 24 -34 35 -54 l21 -37 -32
3 c-29 3 -31 5 -28 35 2 20 -3 39 -14 51 -9 10 -13 19 -7 19 5 0 17 -8 25 -17z
m780 -28 c42 -17 68 -33 71 -45 4 -16 1 -18 -22 -14 -18 4 -32 0 -40 -10 -8
-9 -20 -16 -28 -16 -9 0 -13 -6 -9 -15 7 -18 7 -18 -35 -1 -19 7 -43 16 -53
20 -18 6 -18 7 -1 20 24 17 12 51 -25 68 -92 40 39 34 142 -7z m-69 -154 c32
-25 68 -62 80 -81 20 -33 18 -32 -30 14 -67 65 -81 72 -97 51 -10 -14 -25 -16
-76 -13 -73 4 -86 18 -35 37 19 7 40 21 46 32 14 27 39 18 112 -40z m-183 -62
c0 -12 -37 -17 -54 -7 -21 12 -21 34 2 47 13 8 21 5 34 -12 10 -12 18 -25 18
-28z m-210 16 c0 -8 -4 -15 -10 -15 -5 0 -10 7 -10 15 0 8 5 15 10 15 6 0 10
-7 10 -15z m120 7 c0 -17 -42 -32 -75 -26 -50 9 -43 22 13 27 26 2 50 4 55 5
4 1 7 -1 7 -6z m880 -364 c0 -76 -5 -72 -14 10 -5 44 -4 62 3 57 6 -3 11 -34
11 -67z m-20 -50 c0 -38 -5 -34 -13 10 -4 21 -3 31 3 27 6 -3 10 -20 10 -37z
m-958 -239 c-4 -19 -16 -35 -25 -37 -14 -3 -13 3 6 37 25 46 32 46 19 0z
m-132 -56 c0 -23 -4 -45 -10 -48 -6 -4 -10 17 -10 57 0 44 3 59 10 48 5 -8 10
-34 10 -57z m1096 -435 c15 -24 35 -63 44 -88 11 -31 29 -55 60 -78 116 -87
179 -181 181 -268 0 -37 3 -44 9 -29 6 14 9 0 9 -46 1 -82 -14 -109 -53 -91
-54 24 -164 10 -246 -33 -17 -9 -34 -15 -36 -12 -2 2 -11 39 -19 82 -12 63
-13 80 -3 87 7 4 18 6 25 4 6 -3 13 4 16 15 6 24 -1 24 -25 2 -30 -27 -38 -2
-38 131 0 99 3 124 19 150 22 36 37 81 25 73 -5 -3 -10 28 -12 69 -1 41 2 74
6 74 5 0 22 -19 38 -42z m-53 -148 c-3 -12 -8 -19 -11 -16 -5 6 5 36 12 36 2
0 2 -9 -1 -20z m-1414 -1746 c-19 -21 -25 -23 -27 -10 -2 9 -8 16 -13 16 -5 0
-9 5 -9 10 0 6 17 10 37 10 l36 0 -24 -26z"/>
<path d="M2640 1844 c0 -13 48 -59 55 -52 3 2 -9 17 -25 33 -17 16 -30 24 -30
19z"/>
<path d="M2642 2940 c0 -8 4 -26 8 -40 6 -20 8 -21 8 -5 0 11 -3 29 -8 40 -5
12 -8 14 -8 5z"/>
<path d="M2235 2916 c-27 -6 -49 -15 -49 -19 4 -18 64 -107 73 -107 8 0 36
129 29 135 -2 1 -25 -3 -53 -9z"/>
<path d="M2661 2854 c0 -11 3 -14 6 -6 3 7 2 16 -1 19 -3 4 -6 -2 -5 -13z"/>
<path d="M2671 2814 c0 -11 3 -14 6 -6 3 7 2 16 -1 19 -3 4 -6 -2 -5 -13z"/>
<path d="M2192 2573 c-36 -7 -107 -84 -109 -117 l-1 -28 32 31 32 31 -4 -60
c-4 -52 -2 -59 11 -54 12 4 16 19 15 55 -1 38 3 53 18 64 23 17 34 19 34 5 0
-6 8 -5 21 2 18 11 23 10 45 -16 14 -15 28 -41 31 -57 9 -48 26 -21 20 32 -3
27 -2 49 3 49 15 0 50 -52 50 -74 0 -17 2 -18 10 -6 5 8 10 29 10 47 0 25 -8
38 -32 56 -55 41 -128 59 -128 33 0 -8 -7 -16 -15 -20 -9 -3 -15 0 -15 8 0 8
6 17 13 19 15 7 -8 6 -41 0z"/>
<path d="M3490 2547 c-120 -43 -187 -102 -243 -212 -37 -74 -47 -122 -48 -221
0 -108 22 -198 89 -366 90 -223 122 -370 122 -564 0 -124 -12 -178 -68 -294
-55 -113 -176 -248 -292 -327 -55 -37 -63 -48 -26 -39 23 6 28 0 55 -58 17
-35 31 -69 31 -74 0 -45 88 15 202 137 160 172 262 375 289 578 22 168 -10
330 -149 763 -42 130 -47 155 -47 240 0 79 4 102 22 136 27 50 84 102 121 110
15 3 33 8 40 10 38 12 97 -10 139 -52 25 -25 43 -37 43 -29 0 27 15 16 33 -25
9 -22 17 -45 17 -51 0 -18 31 13 47 46 8 17 20 41 28 55 8 15 12 38 9 58 -4
23 -2 32 5 27 23 -13 10 26 -19 59 -18 20 -26 37 -20 41 18 11 11 20 -17 21
-16 1 -55 13 -88 27 -80 35 -182 37 -275 4z m255 -67 c9 0 15 -9 15 -25 0 -28
-12 -32 -30 -10 -7 8 -21 15 -32 15 -11 0 -29 5 -40 11 -21 11 -21 12 -3 25
15 11 22 11 46 -1 15 -8 35 -15 44 -15z m-381 -1756 c3 -8 2 -12 -4 -9 -6 3
-10 10 -10 16 0 14 7 11 14 -7z"/>
<path d="M2277 2466 c-3 -8 0 -17 7 -19 10 -4 12 1 9 14 -6 23 -9 24 -16 5z"/>
<path d="M2205 2452 c-3 -9 -1 -18 4 -20 6 -2 11 -13 11 -25 0 -20 0 -20 15
-1 13 16 16 17 25 4 8 -12 10 -11 10 8 0 13 -6 22 -16 22 -8 0 -13 4 -10 9 3
5 -3 11 -13 14 -12 3 -22 -1 -26 -11z"/>
<path d="M2230 2368 c0 -4 4 -8 9 -8 6 0 12 4 15 8 3 5 -1 9 -9 9 -8 0 -15 -4
-15 -9z"/>
<path d="M2301 2330 c-12 -17 -17 -30 -12 -30 12 0 46 48 39 55 -2 3 -14 -9
-27 -25z"/>
<path d="M2165 2339 c-10 -15 35 -59 59 -58 15 0 17 2 6 6 -8 4 -21 15 -28 25
-7 10 -18 15 -24 12 -7 -5 -9 -1 -5 9 7 19 2 23 -8 6z"/>
<path d="M1634 2175 c11 -8 27 -14 35 -14 13 1 12 2 -1 6 -10 2 -18 9 -18 14
0 5 -8 9 -17 9 -16 -1 -16 -2 1 -15z"/>
<path d="M2389 2098 c-6 -13 -39 -52 -73 -87 -33 -35 -56 -61 -49 -57 6 3 14
0 17 -6 3 -7 4 -4 3 6 -1 10 3 21 9 23 7 2 17 -18 24 -49 7 -29 23 -74 36
-100 35 -70 29 -123 -24 -198 -19 -28 -17 -27 14 8 28 32 39 54 42 85 5 56 -7
135 -18 117 -5 -9 -17 15 -34 70 l-25 83 49 54 c28 30 50 59 50 64 0 16 -9 10
-21 -13z"/>
<path d="M2282 1903 c-1 -22 0 -24 8 -13 12 18 13 40 2 40 -4 0 -9 -12 -10
-27z"/>
<path d="M1685 1891 c17 -12 36 -21 44 -21 8 0 11 -7 8 -17 -34 -108 -39 -140
-42 -263 l-3 -135 8 135 c5 102 13 153 32 207 l24 72 -40 18 c-62 26 -63 26
-31 4z"/>
<path d="M1592 1850 c0 -14 2 -19 5 -12 2 6 2 18 0 25 -3 6 -5 1 -5 -13z"/>
<path d="M2040 1800 c-20 -11 -28 -19 -19 -20 9 0 27 9 40 20 30 24 24 24 -21
0z"/>
<path d="M1955 1800 c11 -5 27 -9 35 -9 9 0 8 4 -5 9 -11 5 -27 9 -35 9 -9 0
-8 -4 5 -9z"/>
<path d="M1880 1797 c0 -5 5 -18 11 -29 6 -12 12 -47 12 -77 0 -43 1 -46 4
-17 3 30 7 36 14 25 8 -10 8 -7 3 11 -8 29 -43 99 -44 87z"/>
<path d="M1602 1745 c0 -16 2 -22 5 -12 2 9 2 23 0 30 -3 6 -5 -1 -5 -18z"/>
<path d="M1621 1629 c-1 -19 29 -122 34 -117 2 2 -5 32 -15 68 -10 36 -19 58
-19 49z"/>
<path d="M1912 1600 c0 -19 2 -27 5 -17 2 9 2 25 0 35 -3 9 -5 1 -5 -18z"/>
<path d="M1831 1565 c-21 -21 -29 -35 -22 -39 6 -4 11 -16 11 -27 0 -16 5 -18
28 -13 37 9 40 14 9 14 -31 0 -30 -2 -16 39 7 21 14 29 19 21 5 -9 9 -8 13 3
12 32 -9 33 -42 2z"/>
<path d="M1935 1540 c3 -19 11 -39 17 -45 14 -13 2 55 -13 70 -7 7 -8 -1 -4
-25z"/>
<path d="M1860 1531 c0 -5 5 -13 10 -16 6 -3 10 -2 10 4 0 5 -4 13 -10 16 -5
3 -10 2 -10 -4z"/>
<path d="M1660 1495 c0 -5 5 -17 10 -25 5 -8 10 -10 10 -5 0 6 -5 17 -10 25
-5 8 -10 11 -10 5z"/>
<path d="M1771 1464 c0 -11 3 -14 6 -6 3 7 2 16 -1 19 -3 4 -6 -2 -5 -13z"/>
<path d="M1785 1440 c-14 -6 -15 -9 -5 -9 9 -1 23 -10 33 -21 10 -12 22 -18
27 -15 5 3 0 17 -12 30 -12 14 -22 25 -22 24 -1 0 -10 -4 -21 -9z"/>
<path d="M1697 1433 c-7 -12 17 -73 29 -73 3 0 2 5 -2 12 -4 6 -10 25 -13 42
-4 19 -10 26 -14 19z"/>
<path d="M2117 1392 c-20 -22 -22 -35 -4 -29 6 2 12 8 12 13 0 5 4 15 8 22 12
18 3 15 -16 -6z"/>
<path d="M1868 1383 c6 -2 18 -2 25 0 6 3 1 5 -13 5 -14 0 -19 -2 -12 -5z"/>
<path d="M2064 1349 c-19 -22 -19 -22 4 -10 12 6 22 16 22 21 0 15 -5 12 -26
-11z"/>
<path d="M1991 1344 c0 -11 3 -14 6 -6 3 7 2 16 -1 19 -3 4 -6 -2 -5 -13z"/>
<path d="M1735 1301 c-3 -5 -1 -12 5 -16 5 -3 10 1 10 9 0 18 -6 21 -15 7z"/>
<path d="M1757 1235 c3 -22 7 -42 9 -44 8 -9 2 45 -6 64 -7 14 -8 8 -3 -20z"/>
<path d="M1610 1256 c0 -2 8 -10 18 -17 15 -13 16 -12 3 4 -13 16 -21 21 -21
13z"/>
<path d="M1892 1237 c-8 -10 -6 -13 7 -13 11 0 17 6 14 13 -3 7 -6 13 -8 13
-1 0 -7 -6 -13 -13z"/>
<path d="M1839 1193 c-13 -16 -12 -17 4 -4 16 13 21 21 13 21 -2 0 -10 -8 -17
-17z"/>
<path d="M1530 1187 c0 -2 15 -16 33 -33 l32 -29 -29 33 c-28 30 -36 37 -36
29z"/>
<path d="M1786 1147 c-30 -39 -34 -59 -9 -50 11 4 13 8 5 11 -9 3 -5 15 13 38
14 19 24 34 21 34 -3 0 -16 -15 -30 -33z"/>
<path d="M1656 1055 c-3 -9 0 -15 9 -15 9 0 12 6 9 15 -4 8 -7 15 -9 15 -2 0
-5 -7 -9 -15z"/>
<path d="M1637 991 c-4 -18 -7 -43 -6 -55 1 -11 5 -1 10 24 5 25 7 49 6 55 -2
5 -7 -5 -10 -24z"/>
<path d="M1827 1001 c-4 -17 -3 -21 5 -13 5 5 8 16 6 23 -3 8 -7 3 -11 -10z"/>
<path d="M1930 1009 c0 -5 5 -7 10 -4 6 3 10 8 10 11 0 2 -4 4 -10 4 -5 0 -10
-5 -10 -11z"/>
<path d="M1832 930 c0 -14 2 -19 5 -12 2 6 2 18 0 25 -3 6 -5 1 -5 -13z"/>
<path d="M1833 840 c0 -25 2 -35 4 -22 2 12 2 32 0 45 -2 12 -4 2 -4 -23z"/>
<path d="M1622 820 c0 -14 2 -19 5 -12 2 6 2 18 0 25 -3 6 -5 1 -5 -13z"/>
<path d="M1615 669 c5 -71 3 -104 -4 -109 -18 -11 -2 -150 17 -150 11 0 13 8
8 38 -3 20 -6 101 -6 180 0 99 -3 142 -11 142 -8 0 -10 -28 -4 -101z"/>
<path d="M1841 654 c0 -11 3 -14 6 -6 3 7 2 16 -1 19 -3 4 -6 -2 -5 -13z"/>
<path d="M1852 575 c0 -16 2 -22 5 -12 2 9 2 23 0 30 -3 6 -5 -1 -5 -18z"/>
<path d="M1861 503 c0 -17 -4 -40 -7 -50 -5 -15 -4 -15 5 -3 9 13 11 12 12 -5
1 -11 1 -23 0 -27 0 -5 4 -7 11 -5 6 1 14 -6 16 -15 2 -10 -1 -18 -7 -18 -6 0
-11 5 -11 10 0 6 -4 10 -9 10 -5 0 -7 -9 -4 -20 3 -11 12 -20 19 -20 8 0 14
-4 14 -10 0 -5 -4 -10 -10 -10 -5 0 -10 -11 -10 -25 0 -16 6 -25 15 -25 8 0
15 -7 15 -15 0 -8 7 -15 16 -15 14 0 14 1 0 16 -11 10 -16 34 -16 70 0 35 -6
64 -17 81 -9 14 -20 44 -24 67 -6 37 -7 38 -8 9z"/>
<path d="M536 493 c-11 -11 -6 -23 9 -23 8 0 15 4 15 9 0 13 -16 22 -24 14z"/>
<path d="M3132 253 c2 -28 8 -48 15 -48 6 0 15 -3 19 -7 4 -5 17 -8 29 -8 13
0 28 -7 35 -15 17 -21 37 -19 50 6 26 48 -12 92 -88 103 -24 3 -48 8 -53 12
-6 4 -9 -12 -7 -43z"/>
<path d="M3023 35 c-60 -27 -65 -35 -25 -35 16 0 42 13 62 30 42 36 32 38 -37
5z"/>
</g>
</svg>
